<mxfile host="app.diagrams.net" modified="2022-11-22T20:20:55.772Z" agent="5.0 (Windows NT 10.0; Win64; x64) AppleWebKit/537.36 (KHTML, like Gecko) Chrome/107.0.0.0 Safari/537.36" etag="_MMduZyyzJZ0cL7XMGxV" version="20.5.3" type="github">
  <diagram id="73HRTt5fgBROcf9GsZLz" name="Page-1">
    <mxGraphModel dx="2333" dy="781" grid="1" gridSize="10" guides="1" tooltips="1" connect="1" arrows="1" fold="1" page="1" pageScale="1" pageWidth="850" pageHeight="1400" math="0" shadow="0">
      <root>
        <mxCell id="0" />
        <mxCell id="1" parent="0" />
        <mxCell id="4-FvOzDTyUN3m1YPLijg-45" style="edgeStyle=orthogonalEdgeStyle;rounded=0;orthogonalLoop=1;jettySize=auto;html=1;exitX=1;exitY=0.5;exitDx=0;exitDy=0;entryX=0;entryY=0.25;entryDx=0;entryDy=0;" parent="1" source="4q3OVK6k5sH4pMJDt0qG-1" target="4q3OVK6k5sH4pMJDt0qG-12" edge="1">
          <mxGeometry relative="1" as="geometry" />
        </mxCell>
        <mxCell id="4q3OVK6k5sH4pMJDt0qG-1" value="User Input" style="swimlane;fontStyle=0;childLayout=stackLayout;horizontal=1;startSize=26;fillColor=none;horizontalStack=0;resizeParent=1;resizeParentMax=0;resizeLast=0;collapsible=1;marginBottom=0;" parent="1" vertex="1">
          <mxGeometry x="-640" y="479" width="140" height="52" as="geometry" />
        </mxCell>
        <mxCell id="4-FvOzDTyUN3m1YPLijg-52" style="edgeStyle=orthogonalEdgeStyle;rounded=0;orthogonalLoop=1;jettySize=auto;html=1;exitX=0.5;exitY=0;exitDx=0;exitDy=0;entryX=-0.007;entryY=0.158;entryDx=0;entryDy=0;entryPerimeter=0;" parent="1" source="4q3OVK6k5sH4pMJDt0qG-12" target="4q3OVK6k5sH4pMJDt0qG-20" edge="1">
          <mxGeometry relative="1" as="geometry">
            <Array as="points">
              <mxPoint x="-120" y="467" />
            </Array>
          </mxGeometry>
        </mxCell>
        <mxCell id="4q3OVK6k5sH4pMJDt0qG-12" value="Handler" style="swimlane;fontStyle=0;childLayout=stackLayout;horizontal=1;startSize=26;fillColor=none;horizontalStack=0;resizeParent=1;resizeParentMax=0;resizeLast=0;collapsible=1;marginBottom=0;" parent="1" vertex="1">
          <mxGeometry x="-260" y="520" width="140" height="52" as="geometry" />
        </mxCell>
        <mxCell id="4q3OVK6k5sH4pMJDt0qG-13" value="+ setNext(h : Handler)" style="text;strokeColor=none;fillColor=none;align=left;verticalAlign=top;spacingLeft=4;spacingRight=4;overflow=hidden;rotatable=0;points=[[0,0.5],[1,0.5]];portConstraint=eastwest;" parent="4q3OVK6k5sH4pMJDt0qG-12" vertex="1">
          <mxGeometry y="26" width="140" height="26" as="geometry" />
        </mxCell>
        <mxCell id="4q3OVK6k5sH4pMJDt0qG-20" value="baseHandler" style="swimlane;fontStyle=1;align=center;verticalAlign=top;childLayout=stackLayout;horizontal=1;startSize=26;horizontalStack=0;resizeParent=1;resizeParentMax=0;resizeLast=0;collapsible=1;marginBottom=0;" parent="1" vertex="1">
          <mxGeometry x="55" y="460" width="370" height="112" as="geometry" />
        </mxCell>
        <mxCell id="4q3OVK6k5sH4pMJDt0qG-21" value="- next : Handler" style="text;strokeColor=none;fillColor=none;align=left;verticalAlign=top;spacingLeft=4;spacingRight=4;overflow=hidden;rotatable=0;points=[[0,0.5],[1,0.5]];portConstraint=eastwest;" parent="4q3OVK6k5sH4pMJDt0qG-20" vertex="1">
          <mxGeometry y="26" width="370" height="26" as="geometry" />
        </mxCell>
        <mxCell id="4q3OVK6k5sH4pMJDt0qG-22" value="" style="line;strokeWidth=1;fillColor=none;align=left;verticalAlign=middle;spacingTop=-1;spacingLeft=3;spacingRight=3;rotatable=0;labelPosition=right;points=[];portConstraint=eastwest;strokeColor=inherit;" parent="4q3OVK6k5sH4pMJDt0qG-20" vertex="1">
          <mxGeometry y="52" width="370" height="8" as="geometry" />
        </mxCell>
        <mxCell id="4q3OVK6k5sH4pMJDt0qG-23" value="+ setNext(h : Handler" style="text;strokeColor=none;fillColor=none;align=left;verticalAlign=top;spacingLeft=4;spacingRight=4;overflow=hidden;rotatable=0;points=[[0,0.5],[1,0.5]];portConstraint=eastwest;" parent="4q3OVK6k5sH4pMJDt0qG-20" vertex="1">
          <mxGeometry y="60" width="370" height="26" as="geometry" />
        </mxCell>
        <mxCell id="4q3OVK6k5sH4pMJDt0qG-25" value="# populateArray(String file, boolean lower, String delim) : String[][]" style="text;strokeColor=none;fillColor=none;align=left;verticalAlign=top;spacingLeft=4;spacingRight=4;overflow=hidden;rotatable=0;points=[[0,0.5],[1,0.5]];portConstraint=eastwest;" parent="4q3OVK6k5sH4pMJDt0qG-20" vertex="1">
          <mxGeometry y="86" width="370" height="26" as="geometry" />
        </mxCell>
        <mxCell id="4q3OVK6k5sH4pMJDt0qG-26" value="responseHandler" style="swimlane;fontStyle=1;align=center;verticalAlign=top;childLayout=stackLayout;horizontal=1;startSize=26;horizontalStack=0;resizeParent=1;resizeParentMax=0;resizeLast=0;collapsible=1;marginBottom=0;" parent="1" vertex="1">
          <mxGeometry x="-430" y="587" width="300" height="112" as="geometry" />
        </mxCell>
        <mxCell id="4q3OVK6k5sH4pMJDt0qG-27" value="+ responseFile : String" style="text;strokeColor=none;fillColor=none;align=left;verticalAlign=top;spacingLeft=4;spacingRight=4;overflow=hidden;rotatable=0;points=[[0,0.5],[1,0.5]];portConstraint=eastwest;" parent="4q3OVK6k5sH4pMJDt0qG-26" vertex="1">
          <mxGeometry y="26" width="300" height="26" as="geometry" />
        </mxCell>
        <mxCell id="4q3OVK6k5sH4pMJDt0qG-30" value="+ studentList : student[]" style="text;strokeColor=none;fillColor=none;align=left;verticalAlign=top;spacingLeft=4;spacingRight=4;overflow=hidden;rotatable=0;points=[[0,0.5],[1,0.5]];portConstraint=eastwest;" parent="4q3OVK6k5sH4pMJDt0qG-26" vertex="1">
          <mxGeometry y="52" width="300" height="26" as="geometry" />
        </mxCell>
        <mxCell id="4q3OVK6k5sH4pMJDt0qG-28" value="" style="line;strokeWidth=1;fillColor=none;align=left;verticalAlign=middle;spacingTop=-1;spacingLeft=3;spacingRight=3;rotatable=0;labelPosition=right;points=[];portConstraint=eastwest;strokeColor=inherit;" parent="4q3OVK6k5sH4pMJDt0qG-26" vertex="1">
          <mxGeometry y="78" width="300" height="8" as="geometry" />
        </mxCell>
        <mxCell id="4q3OVK6k5sH4pMJDt0qG-29" value="+ populateStudent(String[][] arr, student[] studentList)" style="text;strokeColor=none;fillColor=none;align=left;verticalAlign=top;spacingLeft=4;spacingRight=4;overflow=hidden;rotatable=0;points=[[0,0.5],[1,0.5]];portConstraint=eastwest;" parent="4q3OVK6k5sH4pMJDt0qG-26" vertex="1">
          <mxGeometry y="86" width="300" height="26" as="geometry" />
        </mxCell>
        <mxCell id="4q3OVK6k5sH4pMJDt0qG-31" value="answerHandler" style="swimlane;fontStyle=1;align=center;verticalAlign=top;childLayout=stackLayout;horizontal=1;startSize=26;horizontalStack=0;resizeParent=1;resizeParentMax=0;resizeLast=0;collapsible=1;marginBottom=0;" parent="1" vertex="1">
          <mxGeometry x="80" y="600" width="310" height="86" as="geometry" />
        </mxCell>
        <mxCell id="4q3OVK6k5sH4pMJDt0qG-32" value="+ answerFile : String" style="text;strokeColor=none;fillColor=none;align=left;verticalAlign=top;spacingLeft=4;spacingRight=4;overflow=hidden;rotatable=0;points=[[0,0.5],[1,0.5]];portConstraint=eastwest;" parent="4q3OVK6k5sH4pMJDt0qG-31" vertex="1">
          <mxGeometry y="26" width="310" height="26" as="geometry" />
        </mxCell>
        <mxCell id="4q3OVK6k5sH4pMJDt0qG-33" value="" style="line;strokeWidth=1;fillColor=none;align=left;verticalAlign=middle;spacingTop=-1;spacingLeft=3;spacingRight=3;rotatable=0;labelPosition=right;points=[];portConstraint=eastwest;strokeColor=inherit;" parent="4q3OVK6k5sH4pMJDt0qG-31" vertex="1">
          <mxGeometry y="52" width="310" height="8" as="geometry" />
        </mxCell>
        <mxCell id="4q3OVK6k5sH4pMJDt0qG-34" value="+ populateStudent(String[][] arr, student[] studentList)" style="text;strokeColor=none;fillColor=none;align=left;verticalAlign=top;spacingLeft=4;spacingRight=4;overflow=hidden;rotatable=0;points=[[0,0.5],[1,0.5]];portConstraint=eastwest;" parent="4q3OVK6k5sH4pMJDt0qG-31" vertex="1">
          <mxGeometry y="60" width="310" height="26" as="geometry" />
        </mxCell>
        <mxCell id="4q3OVK6k5sH4pMJDt0qG-35" value="questionHandler" style="swimlane;fontStyle=1;align=center;verticalAlign=top;childLayout=stackLayout;horizontal=1;startSize=26;horizontalStack=0;resizeParent=1;resizeParentMax=0;resizeLast=0;collapsible=1;marginBottom=0;" parent="1" vertex="1">
          <mxGeometry x="80" y="710" width="310" height="112" as="geometry" />
        </mxCell>
        <mxCell id="4q3OVK6k5sH4pMJDt0qG-36" value="+ questionFile : String" style="text;strokeColor=none;fillColor=none;align=left;verticalAlign=top;spacingLeft=4;spacingRight=4;overflow=hidden;rotatable=0;points=[[0,0.5],[1,0.5]];portConstraint=eastwest;" parent="4q3OVK6k5sH4pMJDt0qG-35" vertex="1">
          <mxGeometry y="26" width="310" height="26" as="geometry" />
        </mxCell>
        <mxCell id="4q3OVK6k5sH4pMJDt0qG-37" value="" style="line;strokeWidth=1;fillColor=none;align=left;verticalAlign=middle;spacingTop=-1;spacingLeft=3;spacingRight=3;rotatable=0;labelPosition=right;points=[];portConstraint=eastwest;strokeColor=inherit;" parent="4q3OVK6k5sH4pMJDt0qG-35" vertex="1">
          <mxGeometry y="52" width="310" height="8" as="geometry" />
        </mxCell>
        <mxCell id="4-FvOzDTyUN3m1YPLijg-1" value="+ calculateQuestion(" style="text;strokeColor=none;fillColor=none;align=left;verticalAlign=top;spacingLeft=4;spacingRight=4;overflow=hidden;rotatable=0;points=[[0,0.5],[1,0.5]];portConstraint=eastwest;" parent="4q3OVK6k5sH4pMJDt0qG-35" vertex="1">
          <mxGeometry y="60" width="310" height="26" as="geometry" />
        </mxCell>
        <mxCell id="4q3OVK6k5sH4pMJDt0qG-38" value="+ populateStudent(String[][] arr, student[] studentList)" style="text;strokeColor=none;fillColor=none;align=left;verticalAlign=top;spacingLeft=4;spacingRight=4;overflow=hidden;rotatable=0;points=[[0,0.5],[1,0.5]];portConstraint=eastwest;" parent="4q3OVK6k5sH4pMJDt0qG-35" vertex="1">
          <mxGeometry y="86" width="310" height="26" as="geometry" />
        </mxCell>
        <mxCell id="4q3OVK6k5sH4pMJDt0qG-39" value="compareHandler" style="swimlane;fontStyle=1;align=center;verticalAlign=top;childLayout=stackLayout;horizontal=1;startSize=26;horizontalStack=0;resizeParent=1;resizeParentMax=0;resizeLast=0;collapsible=1;marginBottom=0;" parent="1" vertex="1">
          <mxGeometry x="90" y="840" width="275" height="86" as="geometry" />
        </mxCell>
        <mxCell id="4q3OVK6k5sH4pMJDt0qG-45" value="+ scoreList : String[][]" style="text;strokeColor=none;fillColor=none;align=left;verticalAlign=top;spacingLeft=4;spacingRight=4;overflow=hidden;rotatable=0;points=[[0,0.5],[1,0.5]];portConstraint=eastwest;" parent="4q3OVK6k5sH4pMJDt0qG-39" vertex="1">
          <mxGeometry y="26" width="275" height="26" as="geometry" />
        </mxCell>
        <mxCell id="4q3OVK6k5sH4pMJDt0qG-41" value="" style="line;strokeWidth=1;fillColor=none;align=left;verticalAlign=middle;spacingTop=-1;spacingLeft=3;spacingRight=3;rotatable=0;labelPosition=right;points=[];portConstraint=eastwest;strokeColor=inherit;" parent="4q3OVK6k5sH4pMJDt0qG-39" vertex="1">
          <mxGeometry y="52" width="275" height="8" as="geometry" />
        </mxCell>
        <mxCell id="4q3OVK6k5sH4pMJDt0qG-42" value="+ compare(String[] response, String[] solution) " style="text;strokeColor=none;fillColor=none;align=left;verticalAlign=top;spacingLeft=4;spacingRight=4;overflow=hidden;rotatable=0;points=[[0,0.5],[1,0.5]];portConstraint=eastwest;" parent="4q3OVK6k5sH4pMJDt0qG-39" vertex="1">
          <mxGeometry y="60" width="275" height="26" as="geometry" />
        </mxCell>
        <mxCell id="4q3OVK6k5sH4pMJDt0qG-46" value="fileHandler" style="swimlane;fontStyle=1;align=center;verticalAlign=top;childLayout=stackLayout;horizontal=1;startSize=26;horizontalStack=0;resizeParent=1;resizeParentMax=0;resizeLast=0;collapsible=1;marginBottom=0;" parent="1" vertex="1">
          <mxGeometry x="125" y="959" width="220" height="86" as="geometry" />
        </mxCell>
        <mxCell id="4q3OVK6k5sH4pMJDt0qG-47" value="+ studentList : student[]" style="text;strokeColor=none;fillColor=none;align=left;verticalAlign=top;spacingLeft=4;spacingRight=4;overflow=hidden;rotatable=0;points=[[0,0.5],[1,0.5]];portConstraint=eastwest;" parent="4q3OVK6k5sH4pMJDt0qG-46" vertex="1">
          <mxGeometry y="26" width="220" height="26" as="geometry" />
        </mxCell>
        <mxCell id="4q3OVK6k5sH4pMJDt0qG-48" value="" style="line;strokeWidth=1;fillColor=none;align=left;verticalAlign=middle;spacingTop=-1;spacingLeft=3;spacingRight=3;rotatable=0;labelPosition=right;points=[];portConstraint=eastwest;strokeColor=inherit;" parent="4q3OVK6k5sH4pMJDt0qG-46" vertex="1">
          <mxGeometry y="52" width="220" height="8" as="geometry" />
        </mxCell>
        <mxCell id="4q3OVK6k5sH4pMJDt0qG-49" value="+ compileData(student[] arr) : void" style="text;strokeColor=none;fillColor=none;align=left;verticalAlign=top;spacingLeft=4;spacingRight=4;overflow=hidden;rotatable=0;points=[[0,0.5],[1,0.5]];portConstraint=eastwest;" parent="4q3OVK6k5sH4pMJDt0qG-46" vertex="1">
          <mxGeometry y="60" width="220" height="26" as="geometry" />
        </mxCell>
        <mxCell id="4-FvOzDTyUN3m1YPLijg-2" value="cleaner" style="swimlane;fontStyle=1;align=center;verticalAlign=top;childLayout=stackLayout;horizontal=1;startSize=26;horizontalStack=0;resizeParent=1;resizeParentMax=0;resizeLast=0;collapsible=1;marginBottom=0;" parent="1" vertex="1">
          <mxGeometry x="-120" y="600" width="160" height="112" as="geometry" />
        </mxCell>
        <mxCell id="4-FvOzDTyUN3m1YPLijg-3" value="+ 2dArray : String[][]" style="text;strokeColor=none;fillColor=none;align=left;verticalAlign=top;spacingLeft=4;spacingRight=4;overflow=hidden;rotatable=0;points=[[0,0.5],[1,0.5]];portConstraint=eastwest;" parent="4-FvOzDTyUN3m1YPLijg-2" vertex="1">
          <mxGeometry y="26" width="160" height="26" as="geometry" />
        </mxCell>
        <mxCell id="4-FvOzDTyUN3m1YPLijg-8" value="+ cleanedArr : String[]" style="text;strokeColor=none;fillColor=none;align=left;verticalAlign=top;spacingLeft=4;spacingRight=4;overflow=hidden;rotatable=0;points=[[0,0.5],[1,0.5]];portConstraint=eastwest;" parent="4-FvOzDTyUN3m1YPLijg-2" vertex="1">
          <mxGeometry y="52" width="160" height="26" as="geometry" />
        </mxCell>
        <mxCell id="4-FvOzDTyUN3m1YPLijg-4" value="" style="line;strokeWidth=1;fillColor=none;align=left;verticalAlign=middle;spacingTop=-1;spacingLeft=3;spacingRight=3;rotatable=0;labelPosition=right;points=[];portConstraint=eastwest;strokeColor=inherit;" parent="4-FvOzDTyUN3m1YPLijg-2" vertex="1">
          <mxGeometry y="78" width="160" height="8" as="geometry" />
        </mxCell>
        <mxCell id="4-FvOzDTyUN3m1YPLijg-5" value="+ clean(inout arr : String[])" style="text;strokeColor=none;fillColor=none;align=left;verticalAlign=top;spacingLeft=4;spacingRight=4;overflow=hidden;rotatable=0;points=[[0,0.5],[1,0.5]];portConstraint=eastwest;" parent="4-FvOzDTyUN3m1YPLijg-2" vertex="1">
          <mxGeometry y="86" width="160" height="26" as="geometry" />
        </mxCell>
        <mxCell id="4-FvOzDTyUN3m1YPLijg-13" value="studentDataHandler" style="swimlane;fontStyle=1;align=center;verticalAlign=top;childLayout=stackLayout;horizontal=1;startSize=26;horizontalStack=0;resizeParent=1;resizeParentMax=0;resizeLast=0;collapsible=1;marginBottom=0;" parent="1" vertex="1">
          <mxGeometry x="-820" y="621" width="380" height="70" as="geometry" />
        </mxCell>
        <mxCell id="4-FvOzDTyUN3m1YPLijg-14" value="- dataFile : String&#xa;-studentArray : String[][]" style="text;strokeColor=none;fillColor=none;align=left;verticalAlign=top;spacingLeft=4;spacingRight=4;overflow=hidden;rotatable=0;points=[[0,0.5],[1,0.5]];portConstraint=eastwest;" parent="4-FvOzDTyUN3m1YPLijg-13" vertex="1">
          <mxGeometry y="26" width="380" height="44" as="geometry" />
        </mxCell>
        <mxCell id="4-FvOzDTyUN3m1YPLijg-21" value="student" style="swimlane;fontStyle=1;align=center;verticalAlign=top;childLayout=stackLayout;horizontal=1;startSize=26;horizontalStack=0;resizeParent=1;resizeParentMax=0;resizeLast=0;collapsible=1;marginBottom=0;" parent="1" vertex="1">
          <mxGeometry x="70" y="20" width="160" height="424" as="geometry" />
        </mxCell>
        <mxCell id="4-FvOzDTyUN3m1YPLijg-22" value="+ fName : String" style="text;strokeColor=none;fillColor=none;align=left;verticalAlign=top;spacingLeft=4;spacingRight=4;overflow=hidden;rotatable=0;points=[[0,0.5],[1,0.5]];portConstraint=eastwest;" parent="4-FvOzDTyUN3m1YPLijg-21" vertex="1">
          <mxGeometry y="26" width="160" height="26" as="geometry" />
        </mxCell>
        <mxCell id="4-FvOzDTyUN3m1YPLijg-25" value="+ lName : String" style="text;strokeColor=none;fillColor=none;align=left;verticalAlign=top;spacingLeft=4;spacingRight=4;overflow=hidden;rotatable=0;points=[[0,0.5],[1,0.5]];portConstraint=eastwest;" parent="4-FvOzDTyUN3m1YPLijg-21" vertex="1">
          <mxGeometry y="52" width="160" height="26" as="geometry" />
        </mxCell>
        <mxCell id="4-FvOzDTyUN3m1YPLijg-26" value="+ studentID : String" style="text;strokeColor=none;fillColor=none;align=left;verticalAlign=top;spacingLeft=4;spacingRight=4;overflow=hidden;rotatable=0;points=[[0,0.5],[1,0.5]];portConstraint=eastwest;" parent="4-FvOzDTyUN3m1YPLijg-21" vertex="1">
          <mxGeometry y="78" width="160" height="26" as="geometry" />
        </mxCell>
        <mxCell id="4-FvOzDTyUN3m1YPLijg-27" value="+ email : String" style="text;strokeColor=none;fillColor=none;align=left;verticalAlign=top;spacingLeft=4;spacingRight=4;overflow=hidden;rotatable=0;points=[[0,0.5],[1,0.5]];portConstraint=eastwest;" parent="4-FvOzDTyUN3m1YPLijg-21" vertex="1">
          <mxGeometry y="104" width="160" height="26" as="geometry" />
        </mxCell>
        <mxCell id="4-FvOzDTyUN3m1YPLijg-28" value="+ response : String[]" style="text;strokeColor=none;fillColor=none;align=left;verticalAlign=top;spacingLeft=4;spacingRight=4;overflow=hidden;rotatable=0;points=[[0,0.5],[1,0.5]];portConstraint=eastwest;" parent="4-FvOzDTyUN3m1YPLijg-21" vertex="1">
          <mxGeometry y="130" width="160" height="26" as="geometry" />
        </mxCell>
        <mxCell id="4-FvOzDTyUN3m1YPLijg-23" value="" style="line;strokeWidth=1;fillColor=none;align=left;verticalAlign=middle;spacingTop=-1;spacingLeft=3;spacingRight=3;rotatable=0;labelPosition=right;points=[];portConstraint=eastwest;strokeColor=inherit;" parent="4-FvOzDTyUN3m1YPLijg-21" vertex="1">
          <mxGeometry y="156" width="160" height="8" as="geometry" />
        </mxCell>
        <mxCell id="4-FvOzDTyUN3m1YPLijg-24" value="+ setFName : void" style="text;strokeColor=none;fillColor=none;align=left;verticalAlign=top;spacingLeft=4;spacingRight=4;overflow=hidden;rotatable=0;points=[[0,0.5],[1,0.5]];portConstraint=eastwest;" parent="4-FvOzDTyUN3m1YPLijg-21" vertex="1">
          <mxGeometry y="164" width="160" height="26" as="geometry" />
        </mxCell>
        <mxCell id="4-FvOzDTyUN3m1YPLijg-36" value="+ setLName : String" style="text;strokeColor=none;fillColor=none;align=left;verticalAlign=top;spacingLeft=4;spacingRight=4;overflow=hidden;rotatable=0;points=[[0,0.5],[1,0.5]];portConstraint=eastwest;" parent="4-FvOzDTyUN3m1YPLijg-21" vertex="1">
          <mxGeometry y="190" width="160" height="26" as="geometry" />
        </mxCell>
        <mxCell id="4-FvOzDTyUN3m1YPLijg-35" value="+ setStudentID : String" style="text;strokeColor=none;fillColor=none;align=left;verticalAlign=top;spacingLeft=4;spacingRight=4;overflow=hidden;rotatable=0;points=[[0,0.5],[1,0.5]];portConstraint=eastwest;" parent="4-FvOzDTyUN3m1YPLijg-21" vertex="1">
          <mxGeometry y="216" width="160" height="26" as="geometry" />
        </mxCell>
        <mxCell id="4-FvOzDTyUN3m1YPLijg-34" value="+ setEmail : String" style="text;strokeColor=none;fillColor=none;align=left;verticalAlign=top;spacingLeft=4;spacingRight=4;overflow=hidden;rotatable=0;points=[[0,0.5],[1,0.5]];portConstraint=eastwest;" parent="4-FvOzDTyUN3m1YPLijg-21" vertex="1">
          <mxGeometry y="242" width="160" height="26" as="geometry" />
        </mxCell>
        <mxCell id="4-FvOzDTyUN3m1YPLijg-33" value="+ setResponse : String[]" style="text;strokeColor=none;fillColor=none;align=left;verticalAlign=top;spacingLeft=4;spacingRight=4;overflow=hidden;rotatable=0;points=[[0,0.5],[1,0.5]];portConstraint=eastwest;" parent="4-FvOzDTyUN3m1YPLijg-21" vertex="1">
          <mxGeometry y="268" width="160" height="26" as="geometry" />
        </mxCell>
        <mxCell id="4-FvOzDTyUN3m1YPLijg-41" value="+ getFName : void" style="text;strokeColor=none;fillColor=none;align=left;verticalAlign=top;spacingLeft=4;spacingRight=4;overflow=hidden;rotatable=0;points=[[0,0.5],[1,0.5]];portConstraint=eastwest;" parent="4-FvOzDTyUN3m1YPLijg-21" vertex="1">
          <mxGeometry y="294" width="160" height="26" as="geometry" />
        </mxCell>
        <mxCell id="4-FvOzDTyUN3m1YPLijg-40" value="+ getLName : String" style="text;strokeColor=none;fillColor=none;align=left;verticalAlign=top;spacingLeft=4;spacingRight=4;overflow=hidden;rotatable=0;points=[[0,0.5],[1,0.5]];portConstraint=eastwest;" parent="4-FvOzDTyUN3m1YPLijg-21" vertex="1">
          <mxGeometry y="320" width="160" height="26" as="geometry" />
        </mxCell>
        <mxCell id="4-FvOzDTyUN3m1YPLijg-39" value="+ getStudentID : String" style="text;strokeColor=none;fillColor=none;align=left;verticalAlign=top;spacingLeft=4;spacingRight=4;overflow=hidden;rotatable=0;points=[[0,0.5],[1,0.5]];portConstraint=eastwest;" parent="4-FvOzDTyUN3m1YPLijg-21" vertex="1">
          <mxGeometry y="346" width="160" height="26" as="geometry" />
        </mxCell>
        <mxCell id="4-FvOzDTyUN3m1YPLijg-38" value="+ getEmail : String" style="text;strokeColor=none;fillColor=none;align=left;verticalAlign=top;spacingLeft=4;spacingRight=4;overflow=hidden;rotatable=0;points=[[0,0.5],[1,0.5]];portConstraint=eastwest;" parent="4-FvOzDTyUN3m1YPLijg-21" vertex="1">
          <mxGeometry y="372" width="160" height="26" as="geometry" />
        </mxCell>
        <mxCell id="4-FvOzDTyUN3m1YPLijg-37" value="+ getResponse : String[]" style="text;strokeColor=none;fillColor=none;align=left;verticalAlign=top;spacingLeft=4;spacingRight=4;overflow=hidden;rotatable=0;points=[[0,0.5],[1,0.5]];portConstraint=eastwest;" parent="4-FvOzDTyUN3m1YPLijg-21" vertex="1">
          <mxGeometry y="398" width="160" height="26" as="geometry" />
        </mxCell>
        <mxCell id="4-FvOzDTyUN3m1YPLijg-61" value="" style="endArrow=block;html=1;rounded=0;align=center;verticalAlign=bottom;endFill=0;labelBackgroundColor=none;endSize=8;entryX=0.524;entryY=0.001;entryDx=0;entryDy=0;entryPerimeter=0;exitX=1.013;exitY=0.942;exitDx=0;exitDy=0;exitPerimeter=0;" parent="1" source="4q3OVK6k5sH4pMJDt0qG-32" target="4q3OVK6k5sH4pMJDt0qG-20" edge="1">
          <mxGeometry relative="1" as="geometry">
            <mxPoint x="450" y="720" as="sourcePoint" />
            <mxPoint x="250" y="440" as="targetPoint" />
            <Array as="points">
              <mxPoint x="450" y="650" />
              <mxPoint x="450" y="440" />
              <mxPoint x="250" y="440" />
            </Array>
          </mxGeometry>
        </mxCell>
        <mxCell id="4-FvOzDTyUN3m1YPLijg-63" value="" style="endArrow=block;html=1;rounded=0;align=center;verticalAlign=bottom;endFill=0;labelBackgroundColor=none;endSize=8;exitX=1.013;exitY=-0.058;exitDx=0;exitDy=0;exitPerimeter=0;" parent="1" edge="1" source="4-FvOzDTyUN3m1YPLijg-1">
          <mxGeometry relative="1" as="geometry">
            <mxPoint x="240" y="940" as="sourcePoint" />
            <mxPoint x="450" y="650" as="targetPoint" />
            <Array as="points">
              <mxPoint x="450" y="768" />
            </Array>
          </mxGeometry>
        </mxCell>
        <mxCell id="SS_Et1-OaLUcxT9elfu9-7" value="" style="endArrow=block;endFill=1;html=1;edgeStyle=orthogonalEdgeStyle;align=left;verticalAlign=top;rounded=0;exitX=0.413;exitY=-0.013;exitDx=0;exitDy=0;exitPerimeter=0;entryX=0.429;entryY=1.173;entryDx=0;entryDy=0;entryPerimeter=0;" parent="1" source="4q3OVK6k5sH4pMJDt0qG-35" edge="1" target="4q3OVK6k5sH4pMJDt0qG-34">
          <mxGeometry x="-1" relative="1" as="geometry">
            <mxPoint x="120" y="930" as="sourcePoint" />
            <mxPoint x="208" y="900" as="targetPoint" />
          </mxGeometry>
        </mxCell>
        <mxCell id="NzkLPi8dApXX6IUGUcF6-2" style="edgeStyle=orthogonalEdgeStyle;rounded=0;orthogonalLoop=1;jettySize=auto;html=1;exitX=0.75;exitY=1;exitDx=0;exitDy=0;" edge="1" parent="1" source="4q3OVK6k5sH4pMJDt0qG-1" target="4q3OVK6k5sH4pMJDt0qG-26">
          <mxGeometry relative="1" as="geometry">
            <mxPoint x="-352" y="558" as="sourcePoint" />
            <mxPoint x="-312.5" y="600" as="targetPoint" />
          </mxGeometry>
        </mxCell>
        <mxCell id="NzkLPi8dApXX6IUGUcF6-3" value="Populate Array" style="swimlane;fontStyle=1;align=center;verticalAlign=top;childLayout=stackLayout;horizontal=1;startSize=26;horizontalStack=0;resizeParent=1;resizeParentMax=0;resizeLast=0;collapsible=1;marginBottom=0;" vertex="1" parent="1">
          <mxGeometry x="-450" y="320" width="370" height="100" as="geometry" />
        </mxCell>
        <mxCell id="NzkLPi8dApXX6IUGUcF6-4" value="- String[][] arr " style="text;strokeColor=none;fillColor=none;align=left;verticalAlign=top;spacingLeft=4;spacingRight=4;overflow=hidden;rotatable=0;points=[[0,0.5],[1,0.5]];portConstraint=eastwest;" vertex="1" parent="NzkLPi8dApXX6IUGUcF6-3">
          <mxGeometry y="26" width="370" height="26" as="geometry" />
        </mxCell>
        <mxCell id="NzkLPi8dApXX6IUGUcF6-5" value="" style="line;strokeWidth=1;fillColor=none;align=left;verticalAlign=middle;spacingTop=-1;spacingLeft=3;spacingRight=3;rotatable=0;labelPosition=right;points=[];portConstraint=eastwest;strokeColor=inherit;" vertex="1" parent="NzkLPi8dApXX6IUGUcF6-3">
          <mxGeometry y="52" width="370" height="8" as="geometry" />
        </mxCell>
        <mxCell id="NzkLPi8dApXX6IUGUcF6-6" value="# populateArray(String file, boolean lower, String delim) : String[][]&#xa;- countLines(in String : file) : int&#xa;" style="text;strokeColor=none;fillColor=none;align=left;verticalAlign=top;spacingLeft=4;spacingRight=4;overflow=hidden;rotatable=0;points=[[0,0.5],[1,0.5]];portConstraint=eastwest;" vertex="1" parent="NzkLPi8dApXX6IUGUcF6-3">
          <mxGeometry y="60" width="370" height="40" as="geometry" />
        </mxCell>
        <mxCell id="NzkLPi8dApXX6IUGUcF6-13" value="" style="endArrow=open;endFill=1;endSize=12;html=1;rounded=0;entryX=0;entryY=0.5;entryDx=0;entryDy=0;" edge="1" parent="1" target="4q3OVK6k5sH4pMJDt0qG-45">
          <mxGeometry width="160" relative="1" as="geometry">
            <mxPoint x="80" y="650" as="sourcePoint" />
            <mxPoint x="50" y="960" as="targetPoint" />
            <Array as="points">
              <mxPoint x="50" y="650" />
              <mxPoint x="50" y="880" />
            </Array>
          </mxGeometry>
        </mxCell>
        <mxCell id="NzkLPi8dApXX6IUGUcF6-14" value="" style="line;strokeWidth=1;fillColor=none;align=left;verticalAlign=middle;spacingTop=-1;spacingLeft=3;spacingRight=3;rotatable=0;labelPosition=right;points=[];portConstraint=eastwest;strokeColor=inherit;" vertex="1" parent="1">
          <mxGeometry x="50" y="750" width="30" height="10" as="geometry" />
        </mxCell>
        <mxCell id="NzkLPi8dApXX6IUGUcF6-15" value="" style="endArrow=open;endFill=1;endSize=12;html=1;rounded=0;entryX=0.469;entryY=1.148;entryDx=0;entryDy=0;entryPerimeter=0;" edge="1" parent="1" target="4-FvOzDTyUN3m1YPLijg-5">
          <mxGeometry width="160" relative="1" as="geometry">
            <mxPoint x="50" y="860" as="sourcePoint" />
            <mxPoint x="-90" y="800" as="targetPoint" />
            <Array as="points">
              <mxPoint x="-40" y="860" />
            </Array>
          </mxGeometry>
        </mxCell>
        <mxCell id="NzkLPi8dApXX6IUGUcF6-18" value="" style="endArrow=open;endFill=1;endSize=12;html=1;rounded=0;exitX=0.486;exitY=1.005;exitDx=0;exitDy=0;exitPerimeter=0;" edge="1" parent="1" source="4q3OVK6k5sH4pMJDt0qG-42">
          <mxGeometry width="160" relative="1" as="geometry">
            <mxPoint x="-250" y="950" as="sourcePoint" />
            <mxPoint x="224" y="956" as="targetPoint" />
          </mxGeometry>
        </mxCell>
        <mxCell id="NzkLPi8dApXX6IUGUcF6-20" value="" style="endArrow=open;endFill=1;endSize=12;html=1;rounded=0;exitX=0.25;exitY=1;exitDx=0;exitDy=0;entryX=0.566;entryY=-0.014;entryDx=0;entryDy=0;entryPerimeter=0;" edge="1" parent="1" source="4q3OVK6k5sH4pMJDt0qG-1" target="4-FvOzDTyUN3m1YPLijg-13">
          <mxGeometry width="160" relative="1" as="geometry">
            <mxPoint x="-590" y="540" as="sourcePoint" />
            <mxPoint x="-60" y="730" as="targetPoint" />
          </mxGeometry>
        </mxCell>
        <mxCell id="NzkLPi8dApXX6IUGUcF6-24" value="" style="endArrow=block;html=1;rounded=0;align=center;verticalAlign=bottom;endFill=0;labelBackgroundColor=none;endSize=8;exitX=0.01;exitY=-0.125;exitDx=0;exitDy=0;exitPerimeter=0;entryX=0.19;entryY=-0.053;entryDx=0;entryDy=0;entryPerimeter=0;" edge="1" parent="1" source="NzkLPi8dApXX6IUGUcF6-6" target="4-FvOzDTyUN3m1YPLijg-13">
          <mxGeometry relative="1" as="geometry">
            <mxPoint x="-640" y="369.9999999999997" as="sourcePoint" />
            <mxPoint x="-480" y="369.9999999999997" as="targetPoint" />
            <Array as="points">
              <mxPoint x="-748" y="375" />
            </Array>
          </mxGeometry>
        </mxCell>
        <mxCell id="NzkLPi8dApXX6IUGUcF6-25" value="" style="endArrow=block;html=1;rounded=0;align=center;verticalAlign=bottom;endFill=0;labelBackgroundColor=none;endSize=8;entryX=0.285;entryY=-0.005;entryDx=0;entryDy=0;entryPerimeter=0;exitX=0.304;exitY=1.161;exitDx=0;exitDy=0;exitPerimeter=0;" edge="1" parent="1" source="NzkLPi8dApXX6IUGUcF6-6" target="4q3OVK6k5sH4pMJDt0qG-26">
          <mxGeometry relative="1" as="geometry">
            <mxPoint x="-350" y="443.9999999999998" as="sourcePoint" />
            <mxPoint x="-190" y="443.9999999999998" as="targetPoint" />
          </mxGeometry>
        </mxCell>
        <mxCell id="NzkLPi8dApXX6IUGUcF6-26" value="" style="endArrow=block;html=1;rounded=0;align=center;verticalAlign=bottom;endFill=0;labelBackgroundColor=none;endSize=8;entryX=-0.005;entryY=-0.082;entryDx=0;entryDy=0;entryPerimeter=0;" edge="1" parent="1" target="4q3OVK6k5sH4pMJDt0qG-23">
          <mxGeometry relative="1" as="geometry">
            <mxPoint x="-80" y="399.9999999999998" as="sourcePoint" />
            <mxPoint x="80" y="399.9999999999998" as="targetPoint" />
            <Array as="points">
              <mxPoint y="400" />
              <mxPoint y="518" />
            </Array>
          </mxGeometry>
        </mxCell>
      </root>
    </mxGraphModel>
  </diagram>
</mxfile>
